<?xml version="1.0" encoding="utf-8"?>
<!-- Generator: Adobe Illustrator 16.0.2, SVG Export Plug-In . SVG Version: 6.00 Build 0)  -->
<!DOCTYPE svg PUBLIC "-//W3C//DTD SVG 1.1//EN" "http://www.w3.org/Graphics/SVG/1.1/DTD/svg11.dtd">
<svg version="1.1" id="Layer_1" xmlns="http://www.w3.org/2000/svg" xmlns:xlink="http://www.w3.org/1999/xlink" x="0px" y="0px"
	 width="245px" height="92px" viewBox="0 0 245 92" enable-background="new 0 0 245 92" xml:space="preserve">
<path fill="#FC171E" d="M222.038,63.176l0.056,0.183c0,0-42.631-1.602-102.229-1.604c-59.599-0.006-102.411,1.604-102.411,1.604
	l0.163-0.162c0,0,37.251-2.664,102.871-2.664C186.111,60.532,222.038,63.176,222.038,63.176"/>
<path fill="#FC171E" d="M231.198,21.867c-1.657-0.688-3.31-1.389-4.972-2.06c-0.572-0.32-1.056-0.678-1.301-1.045
	c-0.252-0.377-0.557-0.529-1.028-0.646c-0.642-0.151-1.295-0.258-1.89-0.565c-0.596-0.304-1.215-0.43-1.848-0.45
	c-0.326-0.565-1.031-1.786-1.841-1.861l0.01,0.003c0.1,0.067,0.412,1.056,0.521,1.646c-0.251-0.016-0.501,0.01-0.751,0.067
	c-0.505-0.312-1.141-0.728-1.548-0.953c0.011,0.592,0.151,1.122,0.366,1.631c-0.05,0.037-0.1,0.066-0.16,0.096
	c-0.66-0.258-1.346-0.42-2.069-0.45c-0.862-0.036-1.632,0.282-2.421,0.552c-0.99,0.342-1.988,0.659-2.992,0.959
	c-0.726,0.212-1.47,0.265-2.235,0.07c0.27,0.317,0.91,0.608,1.671,0.71c0.598,0.077,1.202,0.092,1.869,0.142
	c-2.963,1.393-5.922,2.051-9.033,0.616c1.553,1.329,3.458,1.812,5.375,2.262c-3.169,0.34-6.074-0.377-8.719-2.167
	c1.992,2.364,4.703,3.291,7.612,3.843c-1.066,0.333-2.146,0.489-3.25,0.45c-1.792-0.06-3.452,0.4-5.002,1.279
	c-0.023,0.017-0.04,0.044-0.105,0.112c0.443-0.095,0.832-0.168,1.222-0.261c1.18-0.284,2.342-0.244,3.506,0.146
	c0.18,0.059,0.362,0.112,0.544,0.158c-1.211,0.546-2.481,1.072-3.789,1.472c-0.011-0.003-0.019-0.005-0.03-0.009
	c-0.298,0.089-5.97,1.865-8.678,1.66c-2.398-0.179-4.799-0.397-7.188-0.665c-1.788-0.202-3.586,0.004-5.309,0.485
	c-1.338,0.371-2.689,0.769-3.907,1.447c-0.063,0.035-0.122,0.082-0.186,0.118c-0.027-0.02-0.117,0-0.242,0.043
	c-1.775-1.182-3.871-1.502-6.186-1.161c-1.236,0.181-2.468,0.426-3.668,0.738c-1.296,0.33-2.54,0.339-3.795-0.017
	c-0.1-0.029-0.202-0.053-0.303-0.076c-0.007-0.004-0.018,0.006-0.043,0.02c0.946,0.777,2.058,1.247,3.416,1.236
	c0.948-0.006,1.897-0.069,2.843-0.089c0.371-0.01,0.744,0.03,1.116,0.046c0,0.023,0,0.053,0.001,0.076
	c-0.04,0.01-0.078,0.033-0.117,0.036c-3.03,0.179-6.038,0.526-9.04,0.936c-2.614,0.354-5.118,0.037-7.468-0.942
	c-0.058-0.026-0.121-0.046-0.191-0.046c2.09,1.504,4.634,2.058,7.388,2.279c-2.208,0.615-6.261,0.945-9.681-0.625
	c0.192,0.153,0.377,0.315,0.578,0.457c0.205,0.148,0.42,0.284,0.64,0.41c0.229,0.139,0.468,0.265,0.702,0.39
	c0.228,0.12,0.456,0.232,0.725,0.367c-1.105-0.039-2.577-0.602-4.271-1.566c0.321,0.274,0.642,0.551,1.01,0.866
	c-0.878-0.282-1.54-0.762-2.245-1.191c-0.004,0.026-0.02,0.049-0.011,0.057c1.979,1.471,4.064,2.811,6.504,3.747
	c3.309,1.267,6.686,1.335,10.128,0.222c0.089-0.03,0.178-0.06,0.266-0.089c0.01-0.003,0.021,0,0.033,0.003
	c-0.431,0.52-1.944,1.165-3.256,1.376c-1.23,0.201-2.464,0.152-3.701,0.06c0.949,0.407,1.961,0.638,3.032,0.698
	c1.57,0.082,3.058-0.218,4.496-0.751c2.165-0.8,4.062-1.914,5.658-3.377c0.9-0.827,1.907-1.524,3.122-1.958
	c-0.101,0.109-0.196,0.225-0.294,0.338c-1.315,1.623-2.087,4.186-2.186,6.25c-0.016,0.294-0.049,0.583-0.097,0.864
	c0,0-0.032,0.311-0.052,0.4c-0.687,2.954-2.736,4.699-5.683,4.699h-0.169h-0.104c-1.501,0-2.065,0.753-2.649,1.729
	c-0.87,1.467-1.615,2.524-2.415,3.435c-0.557,0.63-1.268,1.145-1.956,1.636c-0.075,0.054-0.229,0.144-0.396,0.229
	c-0.26,0.135-0.552,0.265-0.648,0.265l-0.049-0.011l-0.137-0.055c-0.423,0.297-0.889,0.555-1.354,0.842
	c-0.301-0.123-0.796-0.513-1.101-0.407c-1.205,0.413-2.266,1.078-3.121,2.306c2.227,0.473,4.25,0.596,6.272,0.262
	c0.49-0.084,0.998-0.489,1.34-0.873c0.701-0.783,1.303-1.644,1.926-2.483c1.29-1.74,2.859-3.054,5.181-3.467
	c1.774-0.318,3.512-0.833,5.281-1.181c4.908-0.963,9.3-2.975,13.285-5.785c0.332-0.234,0.663-0.417,1.003-0.542
	c2.19-2.343,2.787-5.21,2.794-5.246l0.206,0.026c-0.113,2.255-1.04,3.886-2.088,5.027c0.301-0.019,0.607-0.003,0.93,0.07
	c2.719,0.585,5.428,1.224,8.139,1.852c1.274,0.298,2.524,0.743,3.816,0.899c3.201,0.381,6.302-0.228,9.363-1.09
	c0.434-0.124,0.962-0.074,1.404,0.039c1.743,0.447,3.471,0.949,5.201,1.435c0.313,0.089,0.646,0.153,0.93,0.301
	c0.881,0.448,0.918,1.128,0.058,1.634c-1.12,0.656-2.21,1.445-3.436,1.837c-1.002,0.32-2.244,1.047-3.282-0.137
	c-0.126-0.146-0.521-0.208-0.723-0.143c-1.387,0.471-2.644,1.128-3.457,2.35c-0.455,0.684-0.358,0.989,0.495,1.019
	c1.032,0.035,2.075-0.05,3.105-0.156c1.47-0.152,3.05-0.112,4.362-0.639c0.712-0.287,1.391-0.614,2.101-0.862
	c0.045-0.295,0.233-1.231,0.316-1.425c0.494-1.186,1.375-2.129,2.699-2.885c0.077-0.043,0.188-0.076,0.307-0.089
	c0.04-0.004,0.086-0.007,0.129-0.007c0.124,0,0.291,0.02,0.405,0.109c0.275,0.212,0.697,0.496,1.104,0.449
	c0.201-0.021,0.508-0.711,0.73-1.211l0.041-0.096c-0.899-1.65-2.949-1.577-4.195-2.758c1.662-0.458,3.27-0.97,4.917-1.32
	c0.929-0.194,1.435,0.536,1.003,1.327c-0.465,0.863-0.978,1.709-1.525,2.648c0,0-0.378,1.062-0.496,1.264
	c-0.227,0.386-0.354,0.449-0.442,0.455c-0.46,0.054-0.885-0.074-1.297-0.396c-0.025-0.02-0.154-0.053-0.307-0.037
	c-0.079,0.011-0.144,0.03-0.188,0.051c-1.368,0.782-2.171,1.59-2.596,2.613c-0.028,0.072-0.117,0.4-0.196,0.693
	c-0.067,0.245-0.111,0.412-0.145,0.526c0.475-0.148,0.966-0.26,1.491-0.291c0.337-0.023,0.645-0.315,0.987-0.401
	c0.593-0.145,1.215-0.356,1.801-0.31c1.105,0.085,1.859-0.231,2.432-1.175c1.302-2.152,2.615-4.3,3.95-6.436
	c0.531-0.851,0.647-1.67,0.069-2.527c-0.567-0.851-1.325-1.151-2.429-1.024c-1.509,0.171-3.038,0.155-4.269,0.208
	c-0.168-1.631-0.312-3.031-0.458-4.426c0-0.011-0.001-0.018-0.001-0.022c-0.014-0.612,0.017-1.218,0.141-1.787
	c0.449-2.043,1.566-4.591,3.687-5.375c-0.146-0.029-0.288-0.072-0.423-0.122c-1.08-0.397-1.615-1.508-1.615-1.508
	c1.089,1.167,3.509,1.389,3.509,1.389c0.114,0,0.367,0.023,0.377,0.023c0.056-0.013,0.898-0.016,0.925-0.023
	c-0.038-0.042,0.813,0.046,1.27,0.017c0.528-0.034,1.058-0.166,1.569-0.314c0.707-0.206,1.392-0.497,2.1-0.692
	c0.214-0.056,0.483,0.057,0.717,0.132c0.181,0.059,0.337,0.198,0.515,0.275c0.208,0.085,0.406,0.109,0.637-0.011
	c0.241-0.119,0.526-0.145,0.793-0.212c0.38-0.095,0.758-0.625,0.654-1.002c-0.095-0.367-0.027-0.694,0.058-1.035
	C231.74,22.328,231.6,22.036,231.198,21.867 M172.77,32.438c0.53-0.46,1.066-0.81,1.543-1.074c0.876-0.487,1.545-0.678,1.563-0.685
	l0.07,0.198c-0.455,0.205-0.878,0.44-1.272,0.698c-0.386,0.255-0.744,0.529-1.072,0.817c-2.495,2.199-3.343,5.156-3.353,5.196
	l-0.205-0.04C170.345,35.123,171.54,33.496,172.77,32.438 M221.59,20.055c-0.193-0.021-0.515-0.135-0.649-0.185
	c-0.038-0.013-0.061-0.023-0.061-0.023c0.019,0.01,0.04,0.017,0.061,0.023c0.163,0.05,0.427,0.055,0.636,0.05
	c0.046,0,0.089-0.003,0.128-0.003c0.294-0.275,1.4-0.758,1.574,0.634c0.008,0.076,0.042,0.149,0.061,0.235
	C223.339,20.786,222.62,20.284,221.59,20.055"/>
<path fill="#2DA388" d="M154.439,67.827h-1.752v1.978h2.342v0.356h-2.342v2.484h1.835l0.552-0.008c0.266,0,0.452-0.053,0.603-0.175
	c0.167-0.135,0.292-0.262,0.301-0.637V71.65h0.311c0,0,0.021,0.308-0.034,0.567c-0.083,0.398-0.413,0.781-1.134,0.781l-2.985,0.004
	c0,0-0.563-0.014-0.563-0.572v-4.075v-0.229c0-0.115-0.035-0.201-0.109-0.261c-0.073-0.06-0.18-0.089-0.319-0.089h-0.569v-0.309
	l4.286-0.002c0.72,0,1.05,0.383,1.134,0.783c0.057,0.255,0.031,0.565,0.031,0.565h-0.307v-0.173
	c-0.027-0.346-0.144-0.491-0.313-0.631c-0.149-0.117-0.326-0.185-0.592-0.185H154.439z"/>
<path fill="#2DA388" d="M197.212,67.827h-1.755v1.978h2.343v0.356h-2.343v2.484h1.84l0.55-0.008c0.263,0,0.452-0.053,0.601-0.175
	c0.167-0.135,0.29-0.262,0.303-0.637V71.65h0.308c0,0,0.023,0.308-0.034,0.567c-0.083,0.398-0.41,0.781-1.133,0.781l-2.985,0.004
	c0,0-0.562-0.014-0.562-0.572v-4.075l-0.001-0.229c0-0.115-0.038-0.201-0.111-0.261c-0.071-0.06-0.179-0.089-0.319-0.089h-0.569
	v-0.309l4.287-0.002c0.722,0,1.05,0.383,1.135,0.783c0.054,0.255,0.032,0.565,0.032,0.565h-0.309v-0.173
	c-0.026-0.346-0.144-0.491-0.313-0.631c-0.148-0.117-0.328-0.185-0.59-0.185H197.212z"/>
<path fill="#2DA388" d="M58.722,71.06c0,0.237-0.048,0.455-0.143,0.666c-0.097,0.206-0.232,0.387-0.412,0.543
	c-0.177,0.159-0.392,0.282-0.648,0.375c-0.254,0.085-0.538,0.131-0.858,0.131c-0.314,0-0.598-0.046-0.852-0.131
	c-0.255-0.093-0.473-0.216-0.653-0.375c-0.181-0.156-0.321-0.337-0.418-0.543c-0.096-0.211-0.146-0.429-0.146-0.666v-3.593h-0.725
	h-1.384v0.311h0.569c0.139,0,0.246,0.03,0.321,0.086c0.071,0.063,0.108,0.149,0.108,0.262l-0.003,2.913
	c0,0.288,0.062,0.556,0.184,0.813c0.121,0.252,0.302,0.475,0.542,0.666c0.237,0.19,0.533,0.344,0.887,0.449
	c0.353,0.112,0.757,0.169,1.215,0.169c0.515,0,0.957-0.057,1.323-0.169c0.368-0.105,0.668-0.259,0.904-0.449
	c0.235-0.185,0.407-0.407,0.516-0.657c0.11-0.253,0.164-0.518,0.164-0.801v-3.593h-0.49V71.06z"/>
<path fill="#2DA388" d="M64.215,68.247c-0.055,0.258-0.032,0.568-0.032,0.568h0.307V68.64c0.028-0.346,0.144-0.488,0.312-0.628
	c0.148-0.117,0.328-0.185,0.591-0.185h1.365v5.176h1.114v-5.176h2.402v-0.36h-4.924C64.628,67.467,64.3,67.85,64.215,68.247"/>
<path fill="#2DA388" d="M78.044,70.273l-2.039-2.482c0,0-0.194-0.324-0.709-0.324c-0.517,0-1.068,0.134-1.068,0.134v0.313
	c0.284-0.061,0.505-0.093,0.622-0.044c0.115,0.051,0.168,0.132,0.272,0.256l2.131,2.573v2.305h1.113V70.61l2.575-3.144h-0.604
	L78.044,70.273z"/>
<path fill="#2DA388" d="M110.829,71.511h-0.042l-4.352-4.045H104.8v0.312h0.292c0.134,0,0.244,0.02,0.325,0.056
	c0.063,0.028,0.168,0.116,0.313,0.266l0.077,0.079l0.001,4.824h0.5v-4.371h0.04l4.714,4.505h0.256v-5.67h-0.489V71.511z"/>
<path fill="#2DA388" d="M187.384,67.466v4.046h-0.043l-4.353-4.046h-1.633v0.312h0.292c0.134,0,0.244,0.02,0.327,0.056
	c0.062,0.026,0.165,0.116,0.311,0.266l0.076,0.079l0.003,4.824h0.5v-4.371h0.036l4.717,4.505h0.256v-5.67H187.384z"/>
<path fill="#2DA388" d="M122.997,68.134c-0.327-0.231-0.735-0.399-1.227-0.506c-0.491-0.105-1.077-0.162-1.762-0.162l-3.211-0.006
	v0.311h0.569c0.141,0,0.247,0.03,0.321,0.089c0.073,0.06,0.11,0.147,0.11,0.261c0,0,0.003,3.827,0.003,4.327
	c0,0.426,0.394,0.555,0.531,0.555h1.949c0.618,0,1.164-0.075,1.643-0.221c0.478-0.146,0.882-0.348,1.207-0.604
	c0.325-0.256,0.575-0.552,0.743-0.894c0.171-0.341,0.255-0.708,0.255-1.098c0-0.411-0.094-0.787-0.284-1.135
	C123.654,68.705,123.373,68.398,122.997,68.134 M122.604,71.232c-0.141,0.299-0.335,0.549-0.581,0.748
	c-0.247,0.204-0.535,0.357-0.866,0.465c-0.33,0.099-0.682,0.151-1.059,0.151h-1.183v-4.72h1.193c0.395,0,0.758,0.056,1.089,0.175
	c0.333,0.112,0.619,0.275,0.859,0.48c0.239,0.204,0.427,0.448,0.558,0.734c0.135,0.286,0.202,0.599,0.202,0.935
	C122.817,70.592,122.746,70.937,122.604,71.232"/>
<path fill="#2DA388" d="M143.662,71.69l-1.859-4.214l-1.038-0.01h-0.616v0.308h0.395c0.211,0,0.354,0.033,0.424,0.103
	c0.072,0.068,0.183,0.348,0.349,0.74l0.36,0.827l-0.938,2.233l-1.847-4.211l-1.719-0.018v0.309h0.321
	c0.211,0,0.354,0.033,0.425,0.103c0.072,0.069,0.217,0.307,0.383,0.713l2.005,4.477h0.354l1.266-3.058l1.351,3.058h0.316
	l2.384-5.583h-0.512L143.662,71.69z"/>
<path fill="#2DA388" d="M163.675,67.466h-2.106v0.312h0.57c0.139,0,0.245,0.031,0.319,0.086c0.072,0.059,0.108,0.149,0.108,0.262
	v0.23v4.075c0,0.557,0.564,0.568,0.564,0.568l3.887,0.003v-0.356h-3.343V67.466z"/>
<path fill="#2DA388" d="M173.557,67.466h-2.104v0.312h0.57c0.139,0,0.246,0.031,0.317,0.086c0.074,0.059,0.112,0.149,0.112,0.262
	v0.23v4.075c0,0.557,0.563,0.568,0.563,0.568l3.885,0.003v-0.356h-3.343V67.466z"/>
<path fill="#2DA388" d="M25.624,70.595c-0.135-0.116-0.296-0.216-0.491-0.287c-0.192-0.077-0.405-0.13-0.641-0.162v-0.018
	c0.235-0.089,0.429-0.185,0.585-0.274c0.156-0.093,0.281-0.188,0.374-0.29c0.09-0.103,0.155-0.211,0.194-0.331
	c0.039-0.117,0.058-0.254,0.058-0.405c0-0.203-0.059-0.385-0.177-0.55c-0.117-0.169-0.281-0.314-0.494-0.43
	c-0.212-0.12-0.465-0.213-0.76-0.281c-0.296-0.064-0.62-0.1-0.975-0.1h-2.672l-0.006,0.002h-0.996v0.309h0.569
	c0.14,0,0.246,0.029,0.322,0.089c0.07,0.06,0.107,0.146,0.107,0.261l0.003,0.209v4.109c0,0.558,0.548,0.558,0.548,0.558h2.55
	c0.353,0,0.673-0.039,0.958-0.116c0.287-0.075,0.53-0.182,0.731-0.321c0.203-0.132,0.36-0.29,0.468-0.472
	c0.11-0.186,0.165-0.38,0.165-0.588c0-0.188-0.036-0.359-0.109-0.507C25.865,70.846,25.76,70.711,25.624,70.595 M21.741,67.836
	h0.919c0.334,0,0.621,0.027,0.86,0.077c0.237,0.05,0.436,0.121,0.591,0.214c0.155,0.098,0.27,0.209,0.344,0.341
	c0.072,0.132,0.11,0.282,0.11,0.444c0,0.147-0.033,0.288-0.095,0.415c-0.06,0.126-0.151,0.236-0.271,0.332
	c-0.12,0.093-0.267,0.168-0.442,0.219c-0.175,0.057-0.372,0.079-0.596,0.079h-1.42V67.836z M24.728,71.967
	c-0.074,0.133-0.189,0.243-0.346,0.335c-0.155,0.093-0.353,0.165-0.59,0.215c-0.237,0.056-0.521,0.08-0.845,0.08h-1.206v-2.296
	h1.172c0.357,0,0.657,0.029,0.902,0.096c0.244,0.063,0.443,0.148,0.596,0.258c0.153,0.111,0.263,0.242,0.328,0.394
	c0.069,0.149,0.101,0.314,0.101,0.486C24.841,71.692,24.803,71.835,24.728,71.967"/>
<path fill="#2DA388" d="M36.339,71.65v0.176c-0.011,0.376-0.134,0.502-0.303,0.639c-0.149,0.12-0.336,0.173-0.6,0.173l-0.553,0.008
	h-1.835v-2.484h2.341v-0.356h-2.341v-1.978h1.753h0.373c0.264,0,0.441,0.067,0.592,0.186c0.167,0.139,0.285,0.284,0.313,0.63v0.173
	h0.309c0,0,0.021-0.311-0.034-0.565c-0.083-0.4-0.413-0.783-1.134-0.783h-3.287l-0.102,0.002h-0.897v0.309h0.57
	c0.141,0,0.247,0.029,0.32,0.089s0.11,0.146,0.11,0.261v0.229v4.075c0,0.559,0.563,0.572,0.563,0.572l2.984-0.004
	c0.72,0,1.049-0.383,1.134-0.781c0.056-0.26,0.033-0.567,0.033-0.567H36.339z"/>
<path fill="#2DA388" d="M47.559,72.342l-2.762-5.001h-0.276l-3.2,5.662h0.559l1.048-1.849h2.845l1.016,1.836h1.544v-0.312h-0.202
	C47.814,72.683,47.681,72.56,47.559,72.342 M43.124,70.797l1.24-2.189l1.206,2.189H43.124z"/>
<path fill="#2DA388" d="M99.756,72.342l-2.761-5.001H96.72l-3.2,5.662h0.559l1.047-1.849h2.847l1.015,1.836h1.543v-0.312h-0.202
	C100.011,72.683,99.878,72.56,99.756,72.342 M95.336,70.797l1.24-2.189l1.205,2.189H95.336z"/>
<path fill="#2DA388" d="M205.668,72.473c0.157,0.1,0.331,0.177,0.525,0.229c0.19,0.053,0.396,0.076,0.611,0.076
	c0.164,0,0.329-0.017,0.489-0.057c0.161-0.036,0.304-0.092,0.43-0.166c0.125-0.071,0.226-0.161,0.302-0.27
	c0.077-0.109,0.114-0.233,0.114-0.374c0-0.166-0.053-0.318-0.157-0.45c-0.104-0.129-0.242-0.251-0.413-0.364
	c-0.169-0.114-0.365-0.215-0.584-0.311s-0.441-0.194-0.669-0.295c-0.227-0.096-0.451-0.197-0.67-0.304
	c-0.219-0.108-0.415-0.229-0.585-0.356c-0.17-0.133-0.308-0.278-0.411-0.444c-0.104-0.162-0.157-0.347-0.157-0.561
	c0-0.213,0.048-0.409,0.144-0.591c0.094-0.183,0.234-0.337,0.419-0.473c0.184-0.13,0.41-0.234,0.679-0.31
	c0.268-0.077,0.579-0.113,0.928-0.113c0.628,0,1.125,0.108,1.489,0.331c0.364,0.218,0.626,0.534,0.791,0.952l0.016,1.045h-0.289
	c-0.23-0.69-0.315-0.926-0.555-1.29c-0.104-0.143-0.228-0.261-0.373-0.364c-0.144-0.102-0.311-0.175-0.498-0.231
	c-0.188-0.056-0.398-0.083-0.634-0.083c-0.21,0-0.394,0.027-0.551,0.077c-0.157,0.047-0.287,0.112-0.391,0.189
	c-0.104,0.079-0.181,0.165-0.232,0.264c-0.053,0.103-0.079,0.201-0.079,0.308c0,0.142,0.054,0.277,0.16,0.397
	c0.109,0.117,0.25,0.237,0.427,0.345c0.172,0.107,0.373,0.21,0.6,0.31c0.225,0.099,0.455,0.201,0.689,0.303
	c0.233,0.106,0.463,0.213,0.688,0.326c0.226,0.107,0.427,0.231,0.602,0.362c0.173,0.134,0.314,0.279,0.423,0.434
	c0.108,0.163,0.162,0.337,0.162,0.53c0,0.218-0.05,0.422-0.149,0.618c-0.1,0.191-0.251,0.36-0.451,0.502
	c-0.2,0.147-0.448,0.259-0.745,0.346c-0.298,0.078-0.645,0.125-1.037,0.125c-0.318,0-0.603-0.033-0.854-0.09
	c-0.251-0.061-0.474-0.142-0.665-0.255c-0.192-0.112-0.358-0.247-0.494-0.41c-0.137-0.162-0.25-0.345-0.338-0.546l-0.004-1.081
	h0.316C204.784,71.767,205.511,72.375,205.668,72.473"/>
<path fill="#2DA388" d="M215.874,72.473c0.159,0.1,0.334,0.177,0.526,0.229c0.19,0.053,0.396,0.076,0.61,0.076
	c0.165,0,0.33-0.017,0.488-0.057c0.162-0.036,0.305-0.092,0.43-0.166c0.127-0.071,0.228-0.161,0.304-0.27
	c0.076-0.109,0.113-0.233,0.113-0.374c0-0.166-0.051-0.318-0.156-0.45c-0.105-0.129-0.241-0.251-0.413-0.364
	c-0.171-0.114-0.365-0.215-0.583-0.311c-0.22-0.096-0.443-0.194-0.671-0.295c-0.228-0.096-0.45-0.197-0.669-0.304
	c-0.22-0.108-0.415-0.229-0.583-0.356c-0.172-0.133-0.309-0.278-0.413-0.444c-0.104-0.162-0.158-0.347-0.158-0.561
	c0-0.213,0.047-0.409,0.144-0.591c0.095-0.183,0.234-0.337,0.419-0.473c0.185-0.13,0.411-0.234,0.679-0.31
	c0.271-0.077,0.579-0.113,0.928-0.113c0.629,0,1.127,0.108,1.489,0.331c0.365,0.218,0.627,0.534,0.789,0.952l0.019,1.045h-0.29
	c-0.23-0.69-0.314-0.926-0.554-1.29c-0.104-0.143-0.228-0.261-0.372-0.364c-0.146-0.102-0.312-0.175-0.5-0.231
	c-0.188-0.056-0.396-0.083-0.632-0.083c-0.211,0-0.395,0.027-0.552,0.077c-0.158,0.047-0.286,0.112-0.392,0.189
	c-0.104,0.079-0.18,0.165-0.232,0.264c-0.054,0.103-0.078,0.201-0.078,0.308c0,0.142,0.054,0.277,0.161,0.397
	c0.109,0.117,0.248,0.237,0.424,0.345c0.174,0.107,0.374,0.21,0.602,0.31c0.225,0.099,0.455,0.201,0.689,0.303
	c0.233,0.106,0.462,0.213,0.688,0.326c0.225,0.107,0.425,0.231,0.6,0.362c0.175,0.134,0.317,0.279,0.424,0.434
	c0.11,0.163,0.164,0.337,0.164,0.53c0,0.218-0.052,0.422-0.15,0.618c-0.102,0.191-0.251,0.36-0.45,0.502
	c-0.202,0.147-0.45,0.259-0.748,0.346c-0.295,0.078-0.642,0.125-1.036,0.125c-0.318,0-0.603-0.033-0.854-0.09
	c-0.252-0.061-0.474-0.142-0.665-0.255c-0.192-0.112-0.356-0.247-0.494-0.41c-0.136-0.162-0.25-0.345-0.337-0.546l-0.003-1.081
	h0.315C214.991,71.767,215.717,72.375,215.874,72.473"/>
<path fill="#2DA388" d="M103.858,44.624c-0.223,1.292-0.515,2.353-1.088,3.421c-0.575,1.069-1.487,2.038-2.407,2.843
	c-0.921,0.803-1.503,1.099-2.939,1.603c-1.171,0.407-1.905,0.507-3.319,0.526c-0.724,0.013-1.123,0.029-2.058-0.328
	c-1.127-0.429-1.943-1.031-2.679-1.834c-0.732-0.803-1.255-1.74-1.57-2.81c-0.313-1.068-0.393-2.208-0.242-3.421l2.447-19.903
	l-5.541-0.003h-6.381l-0.306,2.401H80.4c0.648,0,1.12,0.153,1.419,0.457c0.297,0.305,0.41,0.753,0.335,1.346l-2.042,16.197
	c-0.185,1.468-0.075,2.86,0.326,4.163c0.398,1.31,1.085,2.453,2.063,3.434c0.976,0.982,2.239,1.753,3.796,2.317
	c1.555,0.565,3.654,0.847,5.763,0.847c2.374,0,4.44-0.281,6.203-0.847c1.764-0.564,3.248-1.332,4.456-2.308
	c1.205-0.973,2.141-2.103,2.808-3.391c0.666-1.285,1.091-2.658,1.274-4.116l2.568-20.498h-3.063L103.858,44.624z"/>
<path fill="#2DA388" d="M72.321,26.084c-1.815-1.197-4.437-1.799-7.866-1.799c-1.907,0-3.619,0.205-5.139,0.62
	c-1.523,0.41-2.836,0.979-3.941,1.699c-1.105,0.721-1.996,1.571-2.644,2.563c-0.734,1.121-1.158,2.23-1.367,3.728
	c-0.163,1.155,0.038,2.335,0.485,3.221c0.447,0.89,1.084,1.69,1.912,2.405c0.827,0.714,1.796,1.362,2.91,1.947
	c1.112,0.585,2.25,1.145,3.414,1.677c1.166,0.537,2.308,1.066,3.427,1.592c1.122,0.529,2.162,1.203,2.992,1.825
	c1.136,0.851,1.691,1.515,1.625,3.162c-0.065,1.613-2.204,3.575-4.075,4.009c-0.898,0.207-2.063,0.354-2.964,0.354
	c-1.178,0-2.269-0.143-3.278-0.424c-1.009-0.28-1.903-0.691-2.686-1.234c-0.781-0.541-3.885-3.028-3.647-8.552h-2.11l-0.807,5.894
	c0.33,1.111,0.806,2.106,1.427,2.991c0.622,0.879,1.414,1.621,2.376,2.228c0.964,0.605,2.107,1.069,3.433,1.387
	c1.323,0.318,2.85,0.475,4.581,0.475c2.149,0,4.256-0.123,5.941-0.582c1.681-0.452,3.125-1.07,4.325-1.858
	c1.201-0.787,2.019-1.59,2.711-2.635c0.691-1.049,1.056-2.386,1.223-3.583c0.148-1.054-0.155-2.819-0.623-3.678
	c-0.468-0.859-1.13-1.649-1.981-2.371c-0.851-0.725-1.718-1.263-2.863-1.872c-1.144-0.601-2.313-1.187-3.508-1.749
	c-1.195-0.567-2.501-1.241-3.656-1.78c-1.154-0.543-2.28-0.983-3.189-1.511c-1.296-0.758-1.896-1.982-1.716-3.473
	c0.186-1.561,1.584-2.696,2.538-3.053c1.424-0.533,2.406-0.685,3.55-0.685c1.282,0,2.411,0.149,3.391,0.444
	c0.981,0.294,1.828,0.718,2.538,1.266c0.711,0.55,1.534,1.38,2.067,2.138c0.936,1.557,1.47,3.029,1.781,6.104h2.286l0.7-5.691
	C75.328,29.014,74.136,27.281,72.321,26.084"/>
<path fill="#2DA388" d="M43.021,26.084c-1.816-1.197-4.438-1.799-7.867-1.799c-1.906,0-3.618,0.205-5.139,0.62
	c-1.521,0.41-2.835,0.979-3.937,1.699c-1.109,0.721-1.998,1.571-2.648,2.563c-0.731,1.121-1.154,2.23-1.366,3.728
	c-0.164,1.155,0.037,2.335,0.485,3.221c0.448,0.89,1.083,1.69,1.911,2.405c0.827,0.714,1.796,1.362,2.91,1.947
	c1.111,0.585,2.251,1.145,3.416,1.677c1.165,0.537,2.307,1.066,3.427,1.592c1.122,0.529,2.159,1.203,2.991,1.825
	c1.136,0.851,1.692,1.515,1.625,3.162c-0.066,1.613-2.204,3.575-4.074,4.009c-0.9,0.207-2.065,0.354-2.966,0.354
	c-1.176,0-2.271-0.143-3.279-0.424c-1.008-0.28-1.903-0.691-2.685-1.234c-0.781-0.541-3.885-3.028-3.646-8.552H20.07l-0.807,5.894
	c0.328,1.111,0.803,2.106,1.426,2.991c0.62,0.879,1.413,1.621,2.375,2.228c0.963,0.605,2.107,1.069,3.432,1.387
	c1.322,0.318,2.85,0.475,4.582,0.475c2.147,0,4.256-0.123,5.939-0.582c1.683-0.452,3.125-1.07,4.327-1.858
	c1.2-0.787,2.016-1.59,2.71-2.635c0.691-1.049,1.056-2.386,1.224-3.583c0.147-1.054-0.155-2.819-0.623-3.678
	c-0.469-0.859-1.13-1.649-1.981-2.371c-0.853-0.725-1.717-1.263-2.862-1.872c-1.146-0.601-2.314-1.187-3.509-1.749
	c-1.195-0.567-2.501-1.241-3.656-1.78c-1.154-0.543-2.28-0.983-3.188-1.511c-1.295-0.758-1.897-1.982-1.719-3.473
	c0.188-1.561,1.586-2.696,2.54-3.053c1.425-0.533,2.406-0.685,3.548-0.685c1.282,0,2.413,0.149,3.393,0.444
	c0.981,0.294,1.826,0.718,2.538,1.266c0.71,0.55,1.534,1.38,2.069,2.138c0.935,1.557,1.467,3.029,1.779,6.104h2.286l0.7-5.691
	C46.026,29.014,44.836,27.281,43.021,26.084"/>
<path fill="#2DA388" d="M119.859,55.407l1.864-13.149h5.286c0,0,4.955,0.133,7.139-0.89c3.56-1.426,5.03-2.941,5.965-4.319
	c1.42-2.097,1.724-3.873,1.785-4.945c0.087-1.515-0.226-3.693-2.764-5.348c-1.438-0.936-3.92-1.974-8.717-2.034l-18.523-0.01
	l-0.35,2.372h2.42c0.727,0,1.256,0.163,1.595,0.483c0.333,0.323,0.461,0.796,0.377,1.428l-0.168,1.584
	c0,0-2.356,18.478-2.767,21.542c-0.459,3.424,2.554,3.271,2.554,3.271L119.859,55.407z M131.697,38.07
	c-1.625,1.131-3.248,1.356-5.537,1.472l-4.128-0.029l1.325-11.96h1.83c1.73,0,3.182,0.208,4.395,0.409
	c2.916,0.49,3.629,1.694,4.208,2.518c0.444,0.635,0.601,1.27,0.566,2.305C134.331,33.615,133.88,36.559,131.697,38.07"/>
</svg>
