<svg xmlns="http://www.w3.org/2000/svg" width="48" height="48" viewBox="0 0 48 48"><path d="M26.36,25.43c-.3.78-.73.82-1.44.56a31.07,31.07,0,0,0-11.31-2.18,9.23,9.23,0,0,0-3.77.71,6.78,6.78,0,0,0-4.57,6.4,6.61,6.61,0,0,0,4.41,6.36l.07,0a.61.61,0,0,0,.56.23l.27.07a.79.79,0,0,0,.66.21,14,14,0,0,0,12-2.46,18.72,18.72,0,0,0,3.47-3.3,1.08,1.08,0,0,1,1.56-.36q7.1,3.23,14.24,6.31l.27.13v-6.4a2.19,2.19,0,0,1-.42-.11q-5.61-1.85-11.27-3.55c-.9-.28-1.21-.49-.64-1.47a28.74,28.74,0,0,0,2.52-6.28c.24-.82.25-1.28-.88-1.23-2.06.09-4.14,0-6.2,0-.76,0-1-.18-1-1,0-1.88,0-1.88,1.83-1.88,2.5,0,5,0,7.5,0,.62,0,1-.05,1-.86s-.41-.86-1-.86c-2.77,0-5.55,0-8.32,0-.75,0-1.05-.19-1-1s0-1.87,0-2.81c0-.68-.15-1-.89-1-3.8-.11-3.83-.13-3.83,3.7,0,.93-.34,1.09-1.17,1.08-2.5,0-5,0-7.5,0-.61,0-1,.06-1,.87s.39.86,1,.85q3.59,0,7.15,0c1.59,0,1.4-.27,1.5,1.53.06,1.09-.28,1.39-1.37,1.34-1.83-.1-3.67,0-5.5,0-.6,0-1.06,0-1.06.83s.52.79,1.08.79c4.57,0,9.14,0,13.71,0,1,0,1.21.27.82,1.17C27.31,23,26.81,24.22,26.36,25.43Zm-3.15,4.91c-3,3.52-6.59,5.81-11.49,5.09a1.31,1.31,0,0,0-.34,0L10,34.89c-2.85-1.19-3.81-4.24-2-6.43a12.37,12.37,0,0,1,1.18-1.1L9.83,27l.36-.14.06,0,.06-.05.23-.06c4.5-.7,8.61.62,12.64,2.43C24,29.59,23.52,30,23.21,30.34Z"/></svg>